<?xml version="1.0" encoding="UTF-8" standalone="no"?>
<!DOCTYPE svg PUBLIC "-//W3C//DTD SVG 1.1//EN"
 "http://www.w3.org/Graphics/SVG/1.1/DTD/svg11.dtd">
<!-- Generated by graphviz version 2.43.0 (0)
 -->
<!-- Title: %3 Pages: 1 -->
<svg width="222pt" height="854pt"
 viewBox="0.00 0.00 221.91 854.00" xmlns="http://www.w3.org/2000/svg" xmlns:xlink="http://www.w3.org/1999/xlink">
<g id="graph0" class="graph" transform="scale(1 1) rotate(0) translate(4 850)">
<title>%3</title>
<polygon fill="white" stroke="transparent" points="-4,4 -4,-850 217.91,-850 217.91,4 -4,4"/>
<!-- SHOW -->
<g id="node1" class="node">
<title>SHOW</title>
<polygon fill="white" stroke="black" points="211.41,-225 157.41,-225 157.41,-189 211.41,-189 211.41,-225"/>
<text text-anchor="middle" x="184.41" y="-204.5" font-family="Courier,monospace" font-size="10.00">SHOW</text>
</g>
<!-- SHOW_show_id -->
<g id="node2" class="node">
<title>SHOW_show_id</title>
<ellipse fill="white" stroke="black" cx="59.45" cy="-396" rx="34.96" ry="18"/>
<text text-anchor="start" x="37.95" y="-394.5" font-family="Courier,monospace" text-decoration="underline" font-size="10.00">show_id</text>
</g>
<!-- SHOW_show_id&#45;&#45;SHOW -->
<g id="edge1" class="edge">
<title>SHOW_show_id&#45;&#45;SHOW</title>
<path fill="none" stroke="black" d="M90.25,-387.3C100.41,-383.13 111.14,-377.2 118.91,-369 158.58,-327.14 174.92,-257.87 180.69,-225.17"/>
</g>
<!-- SHOW_title -->
<g id="node3" class="node">
<title>SHOW_title</title>
<ellipse fill="white" stroke="black" cx="59.45" cy="-342" rx="27.84" ry="18"/>
<text text-anchor="middle" x="59.45" y="-339.5" font-family="Courier,monospace" font-size="10.00">title</text>
</g>
<!-- SHOW_title&#45;&#45;SHOW -->
<g id="edge2" class="edge">
<title>SHOW_title&#45;&#45;SHOW</title>
<path fill="none" stroke="black" d="M84.84,-334.5C96.14,-330.14 109.19,-323.75 118.91,-315 147.16,-289.59 166.81,-248.83 176.49,-225.32"/>
</g>
<!-- SHOW_description -->
<g id="node4" class="node">
<title>SHOW_description</title>
<ellipse fill="white" stroke="black" cx="59.45" cy="-288" rx="48.72" ry="18"/>
<text text-anchor="middle" x="59.45" y="-285.5" font-family="Courier,monospace" font-size="10.00">description</text>
</g>
<!-- SHOW_description&#45;&#45;SHOW -->
<g id="edge3" class="edge">
<title>SHOW_description&#45;&#45;SHOW</title>
<path fill="none" stroke="black" d="M93.11,-274.76C101.74,-270.77 110.88,-266.09 118.91,-261 135.32,-250.6 152.08,-236.43 164.41,-225.22"/>
</g>
<!-- SHOW_show_type -->
<g id="node5" class="node">
<title>SHOW_show_type</title>
<ellipse fill="white" stroke="black" cx="59.45" cy="-234" rx="41.59" ry="18"/>
<text text-anchor="middle" x="59.45" y="-231.5" font-family="Courier,monospace" font-size="10.00">show_type</text>
</g>
<!-- SHOW_show_type&#45;&#45;SHOW -->
<g id="edge4" class="edge">
<title>SHOW_show_type&#45;&#45;SHOW</title>
<path fill="none" stroke="black" d="M97.01,-225.97C116.41,-221.71 139.79,-216.58 157.33,-212.73"/>
</g>
<!-- SHOW_release_date -->
<g id="node6" class="node">
<title>SHOW_release_date</title>
<ellipse fill="white" stroke="black" cx="59.45" cy="-180" rx="52.28" ry="18"/>
<text text-anchor="middle" x="59.45" y="-177.5" font-family="Courier,monospace" font-size="10.00">release_date</text>
</g>
<!-- SHOW_release_date&#45;&#45;SHOW -->
<g id="edge5" class="edge">
<title>SHOW_release_date&#45;&#45;SHOW</title>
<path fill="none" stroke="black" d="M104.15,-189.6C121.96,-193.51 141.95,-197.89 157.39,-201.29"/>
</g>
<!-- SHOW_date_added -->
<g id="node7" class="node">
<title>SHOW_date_added</title>
<ellipse fill="white" stroke="black" cx="59.45" cy="-126" rx="52.28" ry="18"/>
<text text-anchor="middle" x="59.45" y="-123.5" font-family="Courier,monospace" font-size="10.00">date_added ?</text>
</g>
<!-- SHOW_date_added&#45;&#45;SHOW -->
<g id="edge6" class="edge">
<title>SHOW_date_added&#45;&#45;SHOW</title>
<path fill="none" stroke="black" d="M94.03,-139.66C102.39,-143.56 111.17,-148.09 118.91,-153 135.32,-163.4 152.08,-177.57 164.41,-188.78"/>
</g>
<!-- SHOW_duration_value -->
<g id="node8" class="node">
<title>SHOW_duration_value</title>
<ellipse fill="white" stroke="black" cx="59.45" cy="-72" rx="59.41" ry="18"/>
<text text-anchor="middle" x="59.45" y="-69.5" font-family="Courier,monospace" font-size="10.00">duration_value</text>
</g>
<!-- SHOW_duration_value&#45;&#45;SHOW -->
<g id="edge7" class="edge">
<title>SHOW_duration_value&#45;&#45;SHOW</title>
<path fill="none" stroke="black" d="M98.67,-85.61C105.89,-89.25 113.01,-93.69 118.91,-99 147.16,-124.41 166.81,-165.17 176.49,-188.68"/>
</g>
<!-- SHOW_duration_unit -->
<g id="node9" class="node">
<title>SHOW_duration_unit</title>
<ellipse fill="white" stroke="black" cx="59.45" cy="-18" rx="55.85" ry="18"/>
<text text-anchor="middle" x="59.45" y="-15.5" font-family="Courier,monospace" font-size="10.00">duration_unit</text>
</g>
<!-- SHOW_duration_unit&#45;&#45;SHOW -->
<g id="edge8" class="edge">
<title>SHOW_duration_unit&#45;&#45;SHOW</title>
<path fill="none" stroke="black" d="M99.06,-30.74C106.33,-34.47 113.37,-39.16 118.91,-45 158.58,-86.86 174.92,-156.13 180.69,-188.83"/>
</g>
<!-- PERSON -->
<g id="node10" class="node">
<title>PERSON</title>
<polygon fill="white" stroke="black" points="211.41,-495 157.41,-495 157.41,-459 211.41,-459 211.41,-495"/>
<text text-anchor="middle" x="184.41" y="-474.5" font-family="Courier,monospace" font-size="10.00">PERSON</text>
</g>
<!-- PERSON_person_id -->
<g id="node11" class="node">
<title>PERSON_person_id</title>
<ellipse fill="white" stroke="black" cx="59.45" cy="-504" rx="41.59" ry="18"/>
<text text-anchor="start" x="31.95" y="-502.5" font-family="Courier,monospace" text-decoration="underline" font-size="10.00">person_id</text>
</g>
<!-- PERSON_person_id&#45;&#45;PERSON -->
<g id="edge9" class="edge">
<title>PERSON_person_id&#45;&#45;PERSON</title>
<path fill="none" stroke="black" d="M97.01,-495.97C116.41,-491.71 139.79,-486.58 157.33,-482.73"/>
</g>
<!-- PERSON_name -->
<g id="node12" class="node">
<title>PERSON_name</title>
<ellipse fill="white" stroke="black" cx="59.45" cy="-450" rx="27" ry="18"/>
<text text-anchor="middle" x="59.45" y="-447.5" font-family="Courier,monospace" font-size="10.00">name</text>
</g>
<!-- PERSON_name&#45;&#45;PERSON -->
<g id="edge10" class="edge">
<title>PERSON_name&#45;&#45;PERSON</title>
<path fill="none" stroke="black" d="M85.34,-455.46C106.25,-460.06 136.04,-466.6 157.29,-471.26"/>
</g>
<!-- GENRE -->
<g id="node13" class="node">
<title>GENRE</title>
<polygon fill="white" stroke="black" points="211.41,-603 157.41,-603 157.41,-567 211.41,-567 211.41,-603"/>
<text text-anchor="middle" x="184.41" y="-582.5" font-family="Courier,monospace" font-size="10.00">GENRE</text>
</g>
<!-- GENRE_genre_id -->
<g id="node14" class="node">
<title>GENRE_genre_id</title>
<ellipse fill="white" stroke="black" cx="59.45" cy="-612" rx="38.03" ry="18"/>
<text text-anchor="start" x="34.95" y="-610.5" font-family="Courier,monospace" text-decoration="underline" font-size="10.00">genre_id</text>
</g>
<!-- GENRE_genre_id&#45;&#45;GENRE -->
<g id="edge11" class="edge">
<title>GENRE_genre_id&#45;&#45;GENRE</title>
<path fill="none" stroke="black" d="M94.38,-604.55C114.28,-600.18 139.04,-594.74 157.4,-590.71"/>
</g>
<!-- GENRE_name -->
<g id="node15" class="node">
<title>GENRE_name</title>
<ellipse fill="white" stroke="black" cx="59.45" cy="-558" rx="27" ry="18"/>
<text text-anchor="middle" x="59.45" y="-555.5" font-family="Courier,monospace" font-size="10.00">name</text>
</g>
<!-- GENRE_name&#45;&#45;GENRE -->
<g id="edge12" class="edge">
<title>GENRE_name&#45;&#45;GENRE</title>
<path fill="none" stroke="black" d="M85.34,-563.46C106.25,-568.06 136.04,-574.6 157.29,-579.26"/>
</g>
<!-- COUNTRY -->
<g id="node16" class="node">
<title>COUNTRY</title>
<polygon fill="white" stroke="black" points="213.91,-711 154.91,-711 154.91,-675 213.91,-675 213.91,-711"/>
<text text-anchor="middle" x="184.41" y="-690.5" font-family="Courier,monospace" font-size="10.00">COUNTRY</text>
</g>
<!-- COUNTRY_country_id -->
<g id="node17" class="node">
<title>COUNTRY_country_id</title>
<ellipse fill="white" stroke="black" cx="59.45" cy="-720" rx="45.15" ry="18"/>
<text text-anchor="start" x="28.95" y="-718.5" font-family="Courier,monospace" text-decoration="underline" font-size="10.00">country_id</text>
</g>
<!-- COUNTRY_country_id&#45;&#45;COUNTRY -->
<g id="edge13" class="edge">
<title>COUNTRY_country_id&#45;&#45;COUNTRY</title>
<path fill="none" stroke="black" d="M99.36,-711.46C117.37,-707.5 138.38,-702.89 154.89,-699.26"/>
</g>
<!-- COUNTRY_name -->
<g id="node18" class="node">
<title>COUNTRY_name</title>
<ellipse fill="white" stroke="black" cx="59.45" cy="-666" rx="27" ry="18"/>
<text text-anchor="middle" x="59.45" y="-663.5" font-family="Courier,monospace" font-size="10.00">name</text>
</g>
<!-- COUNTRY_name&#45;&#45;COUNTRY -->
<g id="edge14" class="edge">
<title>COUNTRY_name&#45;&#45;COUNTRY</title>
<path fill="none" stroke="black" d="M85.34,-671.46C105.41,-675.87 133.66,-682.07 154.68,-686.69"/>
</g>
<!-- RATING -->
<g id="node19" class="node">
<title>RATING</title>
<polygon fill="white" stroke="black" points="211.41,-819 157.41,-819 157.41,-783 211.41,-783 211.41,-819"/>
<text text-anchor="middle" x="184.41" y="-798.5" font-family="Courier,monospace" font-size="10.00">RATING</text>
</g>
<!-- RATING_rating_id -->
<g id="node20" class="node">
<title>RATING_rating_id</title>
<ellipse fill="white" stroke="black" cx="59.45" cy="-828" rx="41.59" ry="18"/>
<text text-anchor="start" x="31.95" y="-826.5" font-family="Courier,monospace" text-decoration="underline" font-size="10.00">rating_id</text>
</g>
<!-- RATING_rating_id&#45;&#45;RATING -->
<g id="edge15" class="edge">
<title>RATING_rating_id&#45;&#45;RATING</title>
<path fill="none" stroke="black" d="M97.01,-819.97C116.41,-815.71 139.79,-810.58 157.33,-806.73"/>
</g>
<!-- RATING_code -->
<g id="node21" class="node">
<title>RATING_code</title>
<ellipse fill="white" stroke="black" cx="59.45" cy="-774" rx="27" ry="18"/>
<text text-anchor="middle" x="59.45" y="-771.5" font-family="Courier,monospace" font-size="10.00">code</text>
</g>
<!-- RATING_code&#45;&#45;RATING -->
<g id="edge16" class="edge">
<title>RATING_code&#45;&#45;RATING</title>
<path fill="none" stroke="black" d="M85.34,-779.46C106.25,-784.06 136.04,-790.6 157.29,-795.26"/>
</g>
</g>
</svg>
